<mxfile host="app.diagrams.net" modified="2024-01-09T13:25:12.516Z" agent="Mozilla/5.0 (Windows NT 10.0; Win64; x64) AppleWebKit/537.36 (KHTML, like Gecko) Chrome/120.0.0.0 Safari/537.36" etag="3Ny06nvAhWuDEu-wrm52" version="22.1.17" type="github">
  <diagram name="Page-1" id="6fKwo0ynRwlXGmujbX2A">
    <mxGraphModel dx="933" dy="383" grid="1" gridSize="10" guides="1" tooltips="1" connect="1" arrows="1" fold="1" page="1" pageScale="1" pageWidth="827" pageHeight="1169" math="0" shadow="0">
      <root>
        <mxCell id="0" />
        <mxCell id="1" parent="0" />
        <mxCell id="PbhqeXiSoQulOJvhB-Qh-1" value="" style="outlineConnect=0;dashed=0;verticalLabelPosition=bottom;verticalAlign=top;align=center;html=1;shape=mxgraph.aws3.oracle_db_instance_2;fillColor=#2E73B8;gradientColor=none;" vertex="1" parent="1">
          <mxGeometry x="70" y="160" width="60" height="63" as="geometry" />
        </mxCell>
        <mxCell id="PbhqeXiSoQulOJvhB-Qh-2" value="" style="sketch=0;outlineConnect=0;fontColor=#232F3E;gradientColor=none;fillColor=#C925D1;strokeColor=none;dashed=0;verticalLabelPosition=bottom;verticalAlign=top;align=center;html=1;fontSize=12;fontStyle=0;aspect=fixed;pointerEvents=1;shape=mxgraph.aws4.rds_postgresql_instance_alt;" vertex="1" parent="1">
          <mxGeometry x="620" y="152.5" width="78" height="78" as="geometry" />
        </mxCell>
        <mxCell id="PbhqeXiSoQulOJvhB-Qh-3" value="" style="shape=image;verticalLabelPosition=bottom;labelBackgroundColor=default;verticalAlign=top;aspect=fixed;imageAspect=0;image=data:image/png,iVBORw0KGgoAAAANSUhEUgAAAOUAAAB4CAMAAAA678W5AAAAqFBMVEX///8AAAB/f3/29vbp6elKSkpWVlY6OjpycnLz8/Onp6cRERHh4eFSUlKdnZ35+fnw9/8AdP/r9P+Ghob2+//R0dG+vr64uLiOjo5paWnE3P+wsLAkJCRfX1/Y2Ng0NDTi7/+ky/8AeP8Afv8AcP87kP+u0P9Xn/+Tv//W5/9DQ0MtLS3IyMhoov+Huv+YxP93sP8AZ/8uhP9Wlv9mqf85lv8siv+81f9YLs01AAAGy0lEQVR4nO2ai3aqOhCGg/UuKiBaRbQBBKQqchD0/d/sBBCClUSpUru78q1VL5Dg/MxkMiQFgMFgMBgMBoPBYDAYDAaDwWAwGAwGg5HRGW/HMTzfebUt1dGZjHocoqe2FqP5HxZanzS5M61a/dXWPI23qyP17kw9Cx38EZ3bScHBt/H8M5HZ2P64RRUw5wjeGvJTNRqjvfnPGlQFXa5NOTsZRR7t/pg1FTHpce/UBvykzXFFMR0zqCUMqL/RThq1h/HXaS3jDgOHuPk0TvmdUe02o8E4d42lyn3yt36oM18sCaf65xzVoPUfpCk7SXMTLmN6W+UAt07cUf/g7qI1GeasvOeGAtLEmc45/RIqc4b36HGE2Pa+3pJ66z6VSNk54bxzlGi8h2+pHGbzMde6NU+pWdPGW1mV5y4dlFo2Q9qPVKISdDbYEPr1Z/h+pAOrhEquGYmLXDl6ROQ3VUY5L4Wat7rY4Cy2y6iMZ4caeh9TfqQylWCa2aFSDODxzcDZo5TKfgfUUeA0r8u7n1AJFpkhG+LQHOYGJT5aSiVy4pK7ETAVquTxfDAj9cMO3+RmskzlpkGmn0bBANV23OaxgP2+yvysSSitci3yNWamcvrWIZJN5IvoXs0eyrCPqMzNmmrh8wCP4/UiQ2YqqWGIy5Xa4xVqqrJJa5RlyguVw0amolF0r/Gk2r+oScqqRAXqo4sBqSlqm8Jnocq8swrqL+zqj8vysqzKGYraJ6m8jy/5PDdrXlV6E5V0rrzKEtXdcFzk94dU5pJo68sjQwdPF1/9fJ9KnDBm5KnqmvqoaGZ9TGWue/NyaOLKrvn15mYqR3WeSD0d9DWwKFPdjdv0FPEtlblZ88IzuLLbXD3z4aqgRyFtMwGzm889OdpVqIwr6bPJuelkSRyUoGTto/JgVCLDDrlaFSpzqRQPzQ72cEHyLaUSlRNlnizfK1KZJcNcpVfLDl0NypIqB8jmMnVPuyqVS+y4c4mCo/h6UJZUWXKRFdlCVfmN2icFl6vJ0BzjQVkYbGVU9srJnBMetx+oYzPwrNmIAhSHcPGKVKlxWRTyRIYzwnrbM1QOsa52XnOzeDYv+3x5PzxHKDWeoTI/a85x1acSVkczlYsumXl6yTvWQvN29goHyVNU5vKNmlX2HGnfolyFR00YX2iR1hSfoxKMrkONuExctlq/my1HWrd4ksrc0Ex9QEwblamMMkJxCfEklWC84S4hZ42qVNZRl03xqWepzC/yRFAq7KpUTsg/+zSV+V0femb8hsq7ijyUG2YEA7+z50Ugt45OtT/b87pL5Wf0Zdnv8rfWnTs97oO0+1frJ9B2esG8kTT6pN9TfhHXdipxGzGhPkuu1qCuzLXPhiVJc8Kp7Tl9B/Odsi+GF0ApDO9pFLUbd6fTwfhWfKVXo7ZL12rPLkQVKvfR3lK6LP79HXfkqiRORmPCItDy46Edzt/COKmqes1p4YCY/In/hEGBPj0/0qn97vXYeXCP4RfBT7Mquf1+878p/l347ShdwtzM3h/b1PzdDDv1hJtTKIPBYPzDOArCkS3r1YZUynHl+74tHMLLw4LmvMaeaghtKEkSgNLlYWjsX2PPE5H3oRkkusydHB1w19BWALA8AQZmAIXQMD3Jdd0DVGwzdIBkazvzLBwd2TnAsU3bATDY70xLOaCPzk4LTS0+jS4FA9TBBacAoou/5o5JnnY6BvHH0LdDcy8fbHAwAfBdcNw5wUFyjcCSbd3eC+5asY+CtDI17784ip3VzvJOAnrdGRI8HrVgZVu+LStiaHmiAtauEhwl6Psa+ibpe9RBeYlKICjWeSQiifu1Its20HSoGI4jutZ6BaGPvGIfIn87J8+H0soCjhhb6/oQvWoG8p5uwaMLFF0BgYlUotO6G3VwDQiNNQp7DQQH2T0ILxHpHO19mKhMIlZAKmXfDWxw0t39XpOhj6IsROcEFKiB70irExIVq/TMyOg10uoYGvTXsUovUolc7XvANtdepFKLVTr6Cb2+BGvlwMNXlWAvIjsl3ZUgGlbHQAA2OufomuxFKjNfWuIeKtBZ7aU9ukxepQcVUZPFNXD1TKW8M44SzZbqgKER+mb88RiHUzyTSKKJFFuGb9gCWIsHGNoykD3RDHVH+g+5BfkzIhB9w0JKfD0KSpRh0LgLfEExbH+Fenj6MUQqRaRSRAFxEt3XiEQ51RHkZLAIuTdBTs7B6E2CcnIOQhk5Q5KTv/iUI8ev5z6yFP0BFLESTDqAXAdNf5Erq0FZFRUSwjmX/xWkU1EqlRX404YwGAwGg8FgMBgMBoPBYDAYDAaDwWD8Iv4HpiCRMFGQBG0AAAAASUVORK5CYII=;" vertex="1" parent="1">
          <mxGeometry x="300" y="153" width="152.67" height="80" as="geometry" />
        </mxCell>
        <mxCell id="PbhqeXiSoQulOJvhB-Qh-4" value="" style="endArrow=classic;html=1;rounded=0;" edge="1" parent="1">
          <mxGeometry width="50" height="50" relative="1" as="geometry">
            <mxPoint x="130" y="190" as="sourcePoint" />
            <mxPoint x="290" y="190" as="targetPoint" />
          </mxGeometry>
        </mxCell>
        <mxCell id="PbhqeXiSoQulOJvhB-Qh-5" value="Capture Transactions" style="text;html=1;align=center;verticalAlign=middle;resizable=0;points=[];autosize=1;strokeColor=none;fillColor=none;" vertex="1" parent="1">
          <mxGeometry x="130" y="160" width="140" height="30" as="geometry" />
        </mxCell>
        <mxCell id="PbhqeXiSoQulOJvhB-Qh-6" value="TABLE 1" style="text;html=1;align=center;verticalAlign=middle;resizable=0;points=[];autosize=1;strokeColor=none;fillColor=none;" vertex="1" parent="1">
          <mxGeometry x="65" y="233" width="70" height="30" as="geometry" />
        </mxCell>
        <mxCell id="PbhqeXiSoQulOJvhB-Qh-7" value="DML" style="text;html=1;align=center;verticalAlign=middle;resizable=0;points=[];autosize=1;strokeColor=none;fillColor=none;" vertex="1" parent="1">
          <mxGeometry x="170" y="190" width="50" height="30" as="geometry" />
        </mxCell>
        <mxCell id="PbhqeXiSoQulOJvhB-Qh-8" value="" style="endArrow=classic;html=1;rounded=0;" edge="1" parent="1">
          <mxGeometry width="50" height="50" relative="1" as="geometry">
            <mxPoint x="460" y="190" as="sourcePoint" />
            <mxPoint x="620" y="190" as="targetPoint" />
          </mxGeometry>
        </mxCell>
        <mxCell id="PbhqeXiSoQulOJvhB-Qh-9" value="DML" style="text;html=1;align=center;verticalAlign=middle;resizable=0;points=[];autosize=1;strokeColor=none;fillColor=none;" vertex="1" parent="1">
          <mxGeometry x="510" y="190" width="50" height="30" as="geometry" />
        </mxCell>
        <mxCell id="PbhqeXiSoQulOJvhB-Qh-10" value="TABLE 1" style="text;html=1;align=center;verticalAlign=middle;resizable=0;points=[];autosize=1;strokeColor=none;fillColor=none;" vertex="1" parent="1">
          <mxGeometry x="624" y="233" width="70" height="30" as="geometry" />
        </mxCell>
        <mxCell id="PbhqeXiSoQulOJvhB-Qh-11" value="Integrates Transactions" style="text;html=1;align=center;verticalAlign=middle;resizable=0;points=[];autosize=1;strokeColor=none;fillColor=none;" vertex="1" parent="1">
          <mxGeometry x="460" y="160" width="150" height="30" as="geometry" />
        </mxCell>
        <mxCell id="PbhqeXiSoQulOJvhB-Qh-15" style="edgeStyle=orthogonalEdgeStyle;rounded=0;orthogonalLoop=1;jettySize=auto;html=1;" edge="1" parent="1" source="PbhqeXiSoQulOJvhB-Qh-13" target="PbhqeXiSoQulOJvhB-Qh-14">
          <mxGeometry relative="1" as="geometry" />
        </mxCell>
        <mxCell id="PbhqeXiSoQulOJvhB-Qh-13" value="CAPTURE JOB" style="text;html=1;align=center;verticalAlign=middle;resizable=0;points=[];autosize=1;strokeColor=none;fillColor=none;" vertex="1" parent="1">
          <mxGeometry x="200" y="118" width="110" height="30" as="geometry" />
        </mxCell>
        <mxCell id="PbhqeXiSoQulOJvhB-Qh-14" value="INTEGRATE JOB" style="text;html=1;align=center;verticalAlign=middle;resizable=0;points=[];autosize=1;strokeColor=none;fillColor=none;" vertex="1" parent="1">
          <mxGeometry x="452.67" y="118" width="120" height="30" as="geometry" />
        </mxCell>
        <mxCell id="PbhqeXiSoQulOJvhB-Qh-16" value="HUB Server &amp;amp; Database" style="text;html=1;align=center;verticalAlign=middle;resizable=0;points=[];autosize=1;strokeColor=none;fillColor=none;" vertex="1" parent="1">
          <mxGeometry x="300" y="98" width="150" height="30" as="geometry" />
        </mxCell>
        <mxCell id="PbhqeXiSoQulOJvhB-Qh-17" value="" style="shape=image;verticalLabelPosition=bottom;labelBackgroundColor=default;verticalAlign=top;aspect=fixed;imageAspect=0;image=data:image/png,iVBORw0KGgoAAAANSUhEUgAAAOUAAAB4CAMAAAA678W5AAAAqFBMVEX///8AAAB/f3/29vbp6elKSkpWVlY6OjpycnLz8/Onp6cRERHh4eFSUlKdnZ35+fnw9/8AdP/r9P+Ghob2+//R0dG+vr64uLiOjo5paWnE3P+wsLAkJCRfX1/Y2Ng0NDTi7/+ky/8AeP8Afv8AcP87kP+u0P9Xn/+Tv//W5/9DQ0MtLS3IyMhoov+Huv+YxP93sP8AZ/8uhP9Wlv9mqf85lv8siv+81f9YLs01AAAGy0lEQVR4nO2ai3aqOhCGg/UuKiBaRbQBBKQqchD0/d/sBBCClUSpUru78q1VL5Dg/MxkMiQFgMFgMBgMBoPBYDAYDAaDwWAwGAwGg5HRGW/HMTzfebUt1dGZjHocoqe2FqP5HxZanzS5M61a/dXWPI23qyP17kw9Cx38EZ3bScHBt/H8M5HZ2P64RRUw5wjeGvJTNRqjvfnPGlQFXa5NOTsZRR7t/pg1FTHpce/UBvykzXFFMR0zqCUMqL/RThq1h/HXaS3jDgOHuPk0TvmdUe02o8E4d42lyn3yt36oM18sCaf65xzVoPUfpCk7SXMTLmN6W+UAt07cUf/g7qI1GeasvOeGAtLEmc45/RIqc4b36HGE2Pa+3pJ66z6VSNk54bxzlGi8h2+pHGbzMde6NU+pWdPGW1mV5y4dlFo2Q9qPVKISdDbYEPr1Z/h+pAOrhEquGYmLXDl6ROQ3VUY5L4Wat7rY4Cy2y6iMZ4caeh9TfqQylWCa2aFSDODxzcDZo5TKfgfUUeA0r8u7n1AJFpkhG+LQHOYGJT5aSiVy4pK7ETAVquTxfDAj9cMO3+RmskzlpkGmn0bBANV23OaxgP2+yvysSSitci3yNWamcvrWIZJN5IvoXs0eyrCPqMzNmmrh8wCP4/UiQ2YqqWGIy5Xa4xVqqrJJa5RlyguVw0amolF0r/Gk2r+oScqqRAXqo4sBqSlqm8Jnocq8swrqL+zqj8vysqzKGYraJ6m8jy/5PDdrXlV6E5V0rrzKEtXdcFzk94dU5pJo68sjQwdPF1/9fJ9KnDBm5KnqmvqoaGZ9TGWue/NyaOLKrvn15mYqR3WeSD0d9DWwKFPdjdv0FPEtlblZ88IzuLLbXD3z4aqgRyFtMwGzm889OdpVqIwr6bPJuelkSRyUoGTto/JgVCLDDrlaFSpzqRQPzQ72cEHyLaUSlRNlnizfK1KZJcNcpVfLDl0NypIqB8jmMnVPuyqVS+y4c4mCo/h6UJZUWXKRFdlCVfmN2icFl6vJ0BzjQVkYbGVU9srJnBMetx+oYzPwrNmIAhSHcPGKVKlxWRTyRIYzwnrbM1QOsa52XnOzeDYv+3x5PzxHKDWeoTI/a85x1acSVkczlYsumXl6yTvWQvN29goHyVNU5vKNmlX2HGnfolyFR00YX2iR1hSfoxKMrkONuExctlq/my1HWrd4ksrc0Ex9QEwblamMMkJxCfEklWC84S4hZ42qVNZRl03xqWepzC/yRFAq7KpUTsg/+zSV+V0femb8hsq7ijyUG2YEA7+z50Ugt45OtT/b87pL5Wf0Zdnv8rfWnTs97oO0+1frJ9B2esG8kTT6pN9TfhHXdipxGzGhPkuu1qCuzLXPhiVJc8Kp7Tl9B/Odsi+GF0ApDO9pFLUbd6fTwfhWfKVXo7ZL12rPLkQVKvfR3lK6LP79HXfkqiRORmPCItDy46Edzt/COKmqes1p4YCY/In/hEGBPj0/0qn97vXYeXCP4RfBT7Mquf1+878p/l347ShdwtzM3h/b1PzdDDv1hJtTKIPBYPzDOArCkS3r1YZUynHl+74tHMLLw4LmvMaeaghtKEkSgNLlYWjsX2PPE5H3oRkkusydHB1w19BWALA8AQZmAIXQMD3Jdd0DVGwzdIBkazvzLBwd2TnAsU3bATDY70xLOaCPzk4LTS0+jS4FA9TBBacAoou/5o5JnnY6BvHH0LdDcy8fbHAwAfBdcNw5wUFyjcCSbd3eC+5asY+CtDI17784ip3VzvJOAnrdGRI8HrVgZVu+LStiaHmiAtauEhwl6Psa+ibpe9RBeYlKICjWeSQiifu1Its20HSoGI4jutZ6BaGPvGIfIn87J8+H0soCjhhb6/oQvWoG8p5uwaMLFF0BgYlUotO6G3VwDQiNNQp7DQQH2T0ILxHpHO19mKhMIlZAKmXfDWxw0t39XpOhj6IsROcEFKiB70irExIVq/TMyOg10uoYGvTXsUovUolc7XvANtdepFKLVTr6Cb2+BGvlwMNXlWAvIjsl3ZUgGlbHQAA2OufomuxFKjNfWuIeKtBZ7aU9ukxepQcVUZPFNXD1TKW8M44SzZbqgKER+mb88RiHUzyTSKKJFFuGb9gCWIsHGNoykD3RDHVH+g+5BfkzIhB9w0JKfD0KSpRh0LgLfEExbH+Fenj6MUQqRaRSRAFxEt3XiEQ51RHkZLAIuTdBTs7B6E2CcnIOQhk5Q5KTv/iUI8ev5z6yFP0BFLESTDqAXAdNf5Erq0FZFRUSwjmX/xWkU1EqlRX404YwGAwGg8FgMBgMBoPBYDAYDAaDwWD8Iv4HpiCRMFGQBG0AAAAASUVORK5CYII=;" vertex="1" parent="1">
          <mxGeometry x="59.919999999999995" y="111" width="80.15" height="42" as="geometry" />
        </mxCell>
        <mxCell id="PbhqeXiSoQulOJvhB-Qh-18" value="HVR Agent" style="text;html=1;align=center;verticalAlign=middle;resizable=0;points=[];autosize=1;strokeColor=none;fillColor=none;" vertex="1" parent="1">
          <mxGeometry x="60" y="81" width="80" height="30" as="geometry" />
        </mxCell>
        <mxCell id="PbhqeXiSoQulOJvhB-Qh-19" value="&lt;b&gt;HVR HUB&lt;/b&gt;" style="text;html=1;align=center;verticalAlign=middle;resizable=0;points=[];autosize=1;strokeColor=none;fillColor=none;" vertex="1" parent="1">
          <mxGeometry x="334" y="68" width="80" height="30" as="geometry" />
        </mxCell>
        <mxCell id="PbhqeXiSoQulOJvhB-Qh-20" value="HVR Agent" style="text;html=1;align=center;verticalAlign=middle;resizable=0;points=[];autosize=1;strokeColor=none;fillColor=none;" vertex="1" parent="1">
          <mxGeometry x="619" y="76" width="80" height="30" as="geometry" />
        </mxCell>
        <mxCell id="PbhqeXiSoQulOJvhB-Qh-21" value="" style="shape=image;verticalLabelPosition=bottom;labelBackgroundColor=default;verticalAlign=top;aspect=fixed;imageAspect=0;image=data:image/png,iVBORw0KGgoAAAANSUhEUgAAAOUAAAB4CAMAAAA678W5AAAAqFBMVEX///8AAAB/f3/29vbp6elKSkpWVlY6OjpycnLz8/Onp6cRERHh4eFSUlKdnZ35+fnw9/8AdP/r9P+Ghob2+//R0dG+vr64uLiOjo5paWnE3P+wsLAkJCRfX1/Y2Ng0NDTi7/+ky/8AeP8Afv8AcP87kP+u0P9Xn/+Tv//W5/9DQ0MtLS3IyMhoov+Huv+YxP93sP8AZ/8uhP9Wlv9mqf85lv8siv+81f9YLs01AAAGy0lEQVR4nO2ai3aqOhCGg/UuKiBaRbQBBKQqchD0/d/sBBCClUSpUru78q1VL5Dg/MxkMiQFgMFgMBgMBoPBYDAYDAaDwWAwGAwGg5HRGW/HMTzfebUt1dGZjHocoqe2FqP5HxZanzS5M61a/dXWPI23qyP17kw9Cx38EZ3bScHBt/H8M5HZ2P64RRUw5wjeGvJTNRqjvfnPGlQFXa5NOTsZRR7t/pg1FTHpce/UBvykzXFFMR0zqCUMqL/RThq1h/HXaS3jDgOHuPk0TvmdUe02o8E4d42lyn3yt36oM18sCaf65xzVoPUfpCk7SXMTLmN6W+UAt07cUf/g7qI1GeasvOeGAtLEmc45/RIqc4b36HGE2Pa+3pJ66z6VSNk54bxzlGi8h2+pHGbzMde6NU+pWdPGW1mV5y4dlFo2Q9qPVKISdDbYEPr1Z/h+pAOrhEquGYmLXDl6ROQ3VUY5L4Wat7rY4Cy2y6iMZ4caeh9TfqQylWCa2aFSDODxzcDZo5TKfgfUUeA0r8u7n1AJFpkhG+LQHOYGJT5aSiVy4pK7ETAVquTxfDAj9cMO3+RmskzlpkGmn0bBANV23OaxgP2+yvysSSitci3yNWamcvrWIZJN5IvoXs0eyrCPqMzNmmrh8wCP4/UiQ2YqqWGIy5Xa4xVqqrJJa5RlyguVw0amolF0r/Gk2r+oScqqRAXqo4sBqSlqm8Jnocq8swrqL+zqj8vysqzKGYraJ6m8jy/5PDdrXlV6E5V0rrzKEtXdcFzk94dU5pJo68sjQwdPF1/9fJ9KnDBm5KnqmvqoaGZ9TGWue/NyaOLKrvn15mYqR3WeSD0d9DWwKFPdjdv0FPEtlblZ88IzuLLbXD3z4aqgRyFtMwGzm889OdpVqIwr6bPJuelkSRyUoGTto/JgVCLDDrlaFSpzqRQPzQ72cEHyLaUSlRNlnizfK1KZJcNcpVfLDl0NypIqB8jmMnVPuyqVS+y4c4mCo/h6UJZUWXKRFdlCVfmN2icFl6vJ0BzjQVkYbGVU9srJnBMetx+oYzPwrNmIAhSHcPGKVKlxWRTyRIYzwnrbM1QOsa52XnOzeDYv+3x5PzxHKDWeoTI/a85x1acSVkczlYsumXl6yTvWQvN29goHyVNU5vKNmlX2HGnfolyFR00YX2iR1hSfoxKMrkONuExctlq/my1HWrd4ksrc0Ex9QEwblamMMkJxCfEklWC84S4hZ42qVNZRl03xqWepzC/yRFAq7KpUTsg/+zSV+V0femb8hsq7ijyUG2YEA7+z50Ugt45OtT/b87pL5Wf0Zdnv8rfWnTs97oO0+1frJ9B2esG8kTT6pN9TfhHXdipxGzGhPkuu1qCuzLXPhiVJc8Kp7Tl9B/Odsi+GF0ApDO9pFLUbd6fTwfhWfKVXo7ZL12rPLkQVKvfR3lK6LP79HXfkqiRORmPCItDy46Edzt/COKmqes1p4YCY/In/hEGBPj0/0qn97vXYeXCP4RfBT7Mquf1+878p/l347ShdwtzM3h/b1PzdDDv1hJtTKIPBYPzDOArCkS3r1YZUynHl+74tHMLLw4LmvMaeaghtKEkSgNLlYWjsX2PPE5H3oRkkusydHB1w19BWALA8AQZmAIXQMD3Jdd0DVGwzdIBkazvzLBwd2TnAsU3bATDY70xLOaCPzk4LTS0+jS4FA9TBBacAoou/5o5JnnY6BvHH0LdDcy8fbHAwAfBdcNw5wUFyjcCSbd3eC+5asY+CtDI17784ip3VzvJOAnrdGRI8HrVgZVu+LStiaHmiAtauEhwl6Psa+ibpe9RBeYlKICjWeSQiifu1Its20HSoGI4jutZ6BaGPvGIfIn87J8+H0soCjhhb6/oQvWoG8p5uwaMLFF0BgYlUotO6G3VwDQiNNQp7DQQH2T0ILxHpHO19mKhMIlZAKmXfDWxw0t39XpOhj6IsROcEFKiB70irExIVq/TMyOg10uoYGvTXsUovUolc7XvANtdepFKLVTr6Cb2+BGvlwMNXlWAvIjsl3ZUgGlbHQAA2OufomuxFKjNfWuIeKtBZ7aU9ukxepQcVUZPFNXD1TKW8M44SzZbqgKER+mb88RiHUzyTSKKJFFuGb9gCWIsHGNoykD3RDHVH+g+5BfkzIhB9w0JKfD0KSpRh0LgLfEExbH+Fenj6MUQqRaRSRAFxEt3XiEQ51RHkZLAIuTdBTs7B6E2CcnIOQhk5Q5KTv/iUI8ev5z6yFP0BFLESTDqAXAdNf5Erq0FZFRUSwjmX/xWkU1EqlRX404YwGAwGg8FgMBgMBoPBYDAYDAaDwWD8Iv4HpiCRMFGQBG0AAAAASUVORK5CYII=;" vertex="1" parent="1">
          <mxGeometry x="618.92" y="106" width="80.15" height="42" as="geometry" />
        </mxCell>
        <mxCell id="PbhqeXiSoQulOJvhB-Qh-28" value="REFRESH" style="text;html=1;align=center;verticalAlign=middle;resizable=0;points=[];autosize=1;strokeColor=none;fillColor=none;" vertex="1" parent="1">
          <mxGeometry x="334" y="230.5" width="80" height="30" as="geometry" />
        </mxCell>
        <mxCell id="PbhqeXiSoQulOJvhB-Qh-29" style="edgeStyle=orthogonalEdgeStyle;rounded=0;orthogonalLoop=1;jettySize=auto;html=1;entryX=0.929;entryY=0.417;entryDx=0;entryDy=0;entryPerimeter=0;" edge="1" parent="1" source="PbhqeXiSoQulOJvhB-Qh-28" target="PbhqeXiSoQulOJvhB-Qh-6">
          <mxGeometry relative="1" as="geometry" />
        </mxCell>
        <mxCell id="PbhqeXiSoQulOJvhB-Qh-30" style="edgeStyle=orthogonalEdgeStyle;rounded=0;orthogonalLoop=1;jettySize=auto;html=1;entryX=-0.002;entryY=0.448;entryDx=0;entryDy=0;entryPerimeter=0;" edge="1" parent="1" source="PbhqeXiSoQulOJvhB-Qh-28" target="PbhqeXiSoQulOJvhB-Qh-10">
          <mxGeometry relative="1" as="geometry" />
        </mxCell>
        <mxCell id="PbhqeXiSoQulOJvhB-Qh-31" value="Truncate" style="text;html=1;align=center;verticalAlign=middle;resizable=0;points=[];autosize=1;strokeColor=none;fillColor=none;" vertex="1" parent="1">
          <mxGeometry x="480" y="240" width="70" height="30" as="geometry" />
        </mxCell>
        <mxCell id="PbhqeXiSoQulOJvhB-Qh-32" value="SELECT *" style="text;html=1;align=center;verticalAlign=middle;resizable=0;points=[];autosize=1;strokeColor=none;fillColor=none;" vertex="1" parent="1">
          <mxGeometry x="190" y="240" width="80" height="30" as="geometry" />
        </mxCell>
      </root>
    </mxGraphModel>
  </diagram>
</mxfile>
